<svg xmlns="http://www.w3.org/2000/svg" width="527" height="649" fill="none"><g stroke="#E4E4E4" clip-path="url(#a)" clip-rule="evenodd"><path d="M186.361 616.675c75.703 23.693 153.543 63.212 233.235-8.97 79.693-72.182 129.794-135.414 97.44-217.227-32.354-81.814-164.422-30.855-202.794-103.977-38.373-73.122 45.941-139.485 9.591-204.563C287.484 16.86 259.534-24.85 142.718 16.529 25.902 57.908 36.673 163.193-52.16 224.847c-88.833 61.654-184.944 153.953-53.046 318.647s215.865 49.487 291.567 73.181Z"/><path d="M176.895 578.751c61.583 19.24 124.905 51.33 189.734-7.283 64.828-58.614 105.585-109.959 79.266-176.393-26.32-66.434-133.755-25.055-164.971-84.431-31.216-59.376 37.372-113.265 7.802-166.109-29.569-52.845-52.306-86.713-147.334-53.113-95.028 33.6-86.267 119.094-158.53 169.158-72.265 50.064-150.45 125.012-43.153 258.747s175.603 40.184 237.186 59.424Z"/><path d="M159.188 553.583c49.962 15.698 101.334 41.882 153.929-5.943 52.594-47.825 85.66-89.72 64.307-143.926-21.353-54.206-108.514-20.443-133.838-68.89-25.325-48.448 30.319-92.418 6.33-135.536-23.99-43.117-42.436-70.752-119.531-43.336C53.29 183.367 60.398 253.125 1.771 293.974c-58.627 40.85-122.058 102.003-35.009 211.122 87.049 109.119 142.465 32.788 192.426 48.487Z"/><path d="M140.684 522.816c40.295 12.596 81.728 33.603 124.147-4.768 42.419-38.371 69.087-71.984 51.865-115.475-17.221-43.491-87.518-16.402-107.943-55.273-20.425-38.87 24.453-74.148 5.105-108.743s-34.225-56.767-96.404-34.77c-62.179 21.996-56.446 77.965-103.73 110.739-47.284 32.774-98.442 81.839-28.235 169.388 70.206 87.55 114.9 26.307 155.195 38.902Z"/><path d="M135.917 502.954c32.91 10.295 66.749 27.467 101.393-3.897 34.643-31.365 56.424-58.84 42.358-94.389-14.065-35.549-71.477-13.407-88.158-45.179-16.682-31.772 19.971-60.609 4.169-88.886-15.802-28.277-27.952-46.4-78.734-28.421-50.782 17.98-46.1 63.728-84.718 90.517-38.617 26.79-80.398 66.895-23.06 138.457 57.339 71.562 93.841 21.503 126.75 31.798Z"/><path d="M126.775 488.594c26.718 8.36 54.191 22.305 82.318-3.165 28.127-25.47 45.81-47.781 34.39-76.649-11.419-28.868-58.031-10.887-71.574-36.688-13.544-25.801 16.214-49.217 3.385-72.18-12.829-22.963-22.694-37.68-63.923-23.08-41.229 14.601-37.428 51.751-68.78 73.505-31.353 21.755-65.275 54.323-18.723 112.435 46.553 58.112 76.188 17.462 102.907 25.822Z"/></g><defs><clipPath id="a"><path fill="#fff" d="M-170 0h697v649h-697z"/></clipPath></defs></svg>