<svg width="547" height="231" viewBox="0 0 547 231" fill="none" xmlns="http://www.w3.org/2000/svg">
<g id="Group 22">
<path id="Path 3" fill-rule="evenodd" clip-rule="evenodd" d="M205.361 197.675C281.064 221.368 358.904 260.887 438.596 188.705C518.289 116.523 568.39 53.2913 536.036 -28.5221C503.682 -110.336 371.614 -59.3772 333.242 -132.499C294.869 -205.621 379.183 -271.984 342.833 -337.062C306.484 -402.14 278.534 -443.849 161.718 -402.471C44.9022 -361.092 55.6727 -255.807 -33.1601 -194.153C-121.993 -132.499 -218.104 -40.2003 -86.2063 124.494C45.6915 289.188 129.659 173.981 205.361 197.675Z" stroke="#E4E4E4"/>
<path id="Path 3 Copy" fill-rule="evenodd" clip-rule="evenodd" d="M195.895 159.751C257.478 178.991 320.8 211.081 385.629 152.468C450.457 93.8543 491.214 42.5093 464.895 -23.9248C438.575 -90.3588 331.14 -48.9796 299.924 -108.356C268.708 -167.732 337.296 -221.621 307.726 -274.465C278.157 -327.31 255.42 -361.178 160.392 -327.578C65.3638 -293.978 74.1254 -208.484 1.86115 -158.42C-70.4031 -108.356 -148.588 -33.4076 -41.2912 100.327C66.0059 234.062 134.312 140.511 195.895 159.751Z" stroke="#E4E4E4"/>
<path id="Path 3 Copy 2" fill-rule="evenodd" clip-rule="evenodd" d="M178.188 134.583C228.15 150.281 279.522 176.465 332.117 128.64C384.711 80.8147 417.777 38.9203 396.424 -15.2859C375.071 -69.492 287.91 -35.7291 262.586 -84.1764C237.261 -132.624 292.905 -176.594 268.916 -219.712C244.926 -262.829 226.48 -290.464 149.385 -263.048C72.2899 -235.633 79.398 -165.875 20.771 -125.026C-37.8561 -84.1764 -101.287 -23.0233 -14.238 86.0961C72.8108 195.215 128.227 118.884 178.188 134.583Z" stroke="#E4E4E4"/>
<path id="Path 3 Copy 5" fill-rule="evenodd" clip-rule="evenodd" d="M159.684 103.816C199.979 116.412 241.412 137.419 283.831 99.0481C326.25 60.6769 352.918 27.0639 335.696 -16.427C318.475 -59.918 248.178 -32.8292 227.753 -71.6997C207.328 -110.57 252.206 -145.848 232.858 -180.443C213.51 -215.038 198.633 -237.21 136.454 -215.213C74.2751 -193.217 80.008 -137.248 32.724 -104.474C-14.56 -71.6997 -65.7182 -22.635 4.48849 64.9143C74.6952 152.464 119.389 91.221 159.684 103.816Z" stroke="#E4E4E4"/>
<path id="Path 3 Copy 4" fill-rule="evenodd" clip-rule="evenodd" d="M154.917 83.9542C187.827 94.2494 221.666 111.421 256.31 80.0567C290.953 48.6924 312.734 21.2175 298.668 -14.3316C284.603 -49.8808 227.191 -27.7386 210.51 -59.511C193.828 -91.2835 230.481 -120.12 214.679 -148.397C198.877 -176.674 186.727 -194.797 135.945 -176.818C85.1627 -158.838 89.8448 -113.09 51.2274 -86.3006C12.61 -59.511 -29.1715 -19.406 28.1671 52.156C85.5058 123.718 122.008 73.6589 154.917 83.9542Z" stroke="#E4E4E4"/>
<path id="Path 3 Copy 3" fill-rule="evenodd" clip-rule="evenodd" d="M145.775 69.594C172.493 77.9543 199.966 91.8987 228.093 66.4291C256.22 40.9595 273.903 18.6482 262.483 -10.2197C251.064 -39.0876 204.452 -21.1069 190.909 -46.9079C177.365 -72.7089 207.123 -96.1255 194.294 -119.088C181.465 -142.051 171.6 -156.768 130.371 -142.168C89.142 -127.567 92.9433 -90.4171 61.5906 -68.6625C30.2378 -46.9079 -3.68378 -14.3403 42.8684 43.7721C89.4205 101.884 119.056 61.2336 145.775 69.594Z" stroke="#E4E4E4"/>
</g>
</svg>
